<svg xmlns="http://www.w3.org/2000/svg"  viewBox="0 0 64 64" width="128px" height="128px"><rect width="18" height="4" x="24" y="25" fill="#54FEBD"/><path fill="#54FEBD" d="M11.10939,29.3166c-0.919-2.232-1.4275-4.6849-1.4275-7.2576c0-2.5728,0.5085-5.0256,1.4275-7.2577 S13.358,10.5579,15,8.8682L10.26919,4c-2.2457,2.3108-4.0629,5.0625-5.3188,8.1179C3.69449,15.1734,3,18.5327,3,22.059 C3,25.5852,3.69449,28.9445,4.95039,32L11.10939,29.3166z"/><rect width="6" height="9" x="54" y="46" fill="#54FEBD"/><path fill="#1D1B4C" d="M41,28H23c-0.55225,0-1-0.44727-1-1v-4c0-0.55273,0.44775-1,1-1h18c0.55225,0,1,0.44727,1,1v4 C42,27.55273,41.55225,28,41,28z M24,26h16v-2H24V26z"/><path fill="#1D1B4C" d="M32,24c-2.75684,0-5-2.24316-5-5s2.24316-5,5-5s5,2.24316,5,5S34.75684,24,32,24z M32,16 c-1.6543,0-3,1.3457-3,3s1.3457,3,3,3s3-1.3457,3-3S33.6543,16,32,16z"/><path fill="#1D1B4C" d="M19.68066,61.28027c-0.38818,0-0.75732-0.22656-0.91943-0.60645 c-0.21777-0.50684,0.01758-1.09473,0.5249-1.3125l22.25977-9.54004c0.50732-0.2207,1.09619,0.01758,1.31299,0.52539 c0.21777,0.50684-0.01758,1.09473-0.5249,1.3125l-22.25977,9.54004C19.9458,61.25488,19.81201,61.28027,19.68066,61.28027z"/><path fill="#1D1B4C" d="M44.31934,61.28027c-0.13135,0-0.26514-0.02539-0.39355-0.08105l-22.25977-9.54004 c-0.50732-0.21777-0.74268-0.80566-0.5249-1.3125c0.21729-0.50781,0.80371-0.74707,1.31299-0.52539l22.25977,9.54004 c0.50732,0.21777,0.74268,0.80566,0.5249,1.3125C45.07666,61.05371,44.70752,61.28027,44.31934,61.28027z"/><path fill="#1D1B4C" d="M22.64063,49.45996c-0.37354,0-0.73193-0.20996-0.90332-0.57031 c-0.2373-0.49805-0.02588-1.09473,0.47266-1.33203l16.72998-7.9707c0.49902-0.23535,1.09521-0.02637,1.33301,0.47363 c0.2373,0.49805,0.02588,1.09473-0.47266,1.33301L23.07031,49.3623C22.93164,49.42871,22.78516,49.45996,22.64063,49.45996z"/><path fill="#1D1B4C" d="M41.35938,49.45996c-0.14453,0-0.29102-0.03125-0.42969-0.09766l-16.72998-7.96875 c-0.49854-0.23828-0.70996-0.83496-0.47266-1.33301c0.23779-0.5,0.83496-0.70898,1.33301-0.47363l16.72998,7.9707 c0.49854,0.2373,0.70996,0.83398,0.47266,1.33203C42.09131,49.25,41.73291,49.45996,41.35938,49.45996z"/><path fill="#1D1B4C" d="M25.19092,39.25977c-0.3335,0-0.65918-0.16602-0.84863-0.46973 c-0.29297-0.46777-0.15088-1.08496,0.31738-1.37793l11.78027-7.37012c0.46631-0.29395,1.08447-0.15234,1.37793,0.31738 c0.29297,0.46777,0.15088,1.08496-0.31738,1.37793l-11.78027,7.37012C25.55518,39.21094,25.37207,39.25977,25.19092,39.25977z"/><path fill="#1D1B4C" d="M38.80908,39.25977c-0.18115,0-0.36426-0.04883-0.5293-0.15234L26.49951,31.7373 c-0.46826-0.29297-0.61035-0.91016-0.31738-1.37793c0.29297-0.46973,0.91113-0.61133,1.37793-0.31738l11.78027,7.37012 c0.46826,0.29297,0.61035,0.91016,0.31738,1.37793C39.46826,39.09375,39.14258,39.25977,38.80908,39.25977z"/><path fill="#1D1B4C" d="M2.9502,31c-0.12744,0-0.25488-0.02441-0.37549-0.07324c-0.24902-0.10059-0.44727-0.29785-0.54932-0.54688 C0.68164,27.11035,0,23.6377,0,20.05859c0-3.57813,0.68164-7.05078,2.02539-10.32031 c1.29883-3.16016,3.1582-5.99805,5.52637-8.43555C7.74023,1.10938,7.99902,1,8.26904,1l0,0 c0.27002,0,0.52881,0.10938,0.71729,0.30273l4.73096,4.86816c0.37695,0.38867,0.37695,1.00586,0,1.39453 c-1.57813,1.62305-2.81689,3.5127-3.68311,5.61719c-0.89697,2.17871-1.35205,4.49121-1.35205,6.87598 s0.45508,4.69824,1.35205,6.87695c0.20703,0.50391-0.02637,1.08008-0.52539,1.29785l-6.15918,2.68359 C3.22217,30.97266,3.08643,31,2.9502,31z M8.28418,3.4502C6.42578,5.52832,4.94531,7.89453,3.875,10.49805 C2.63086,13.52539,2,16.74219,2,20.05859c0,2.97168,0.50635,5.8623,1.50586,8.6084l4.32764-1.88574 c-0.76465-2.14941-1.15137-4.40625-1.15137-6.72266c0-2.64648,0.50537-5.2168,1.50244-7.6377 c0.83936-2.03809,1.99365-3.89648,3.4375-5.53613L8.28418,3.4502z"/><path fill="#1D1B4C" d="M28.61133,17.87988c-0.0459,0-0.0918-0.00293-0.13818-0.00977L15.29346,16.0498 c-0.54736-0.0752-0.9292-0.58008-0.854-1.12695c0.07617-0.54785,0.58643-0.93652,1.12744-0.85352l13.17969,1.82031 c0.54736,0.0752,0.9292,0.58008,0.854,1.12695C29.53125,17.51758,29.10254,17.87988,28.61133,17.87988z"/><path fill="#1D1B4C" d="M15.99951,18c-0.43164,0-0.82959-0.28125-0.9585-0.71582l-3-10.13184 c-0.15674-0.53027,0.14551-1.08594,0.67529-1.24316s1.08545,0.14453,1.24268,0.6748l3,10.13184 c0.15674,0.53027-0.14551,1.08594-0.67529,1.24316C16.18896,17.9873,16.09375,18,15.99951,18z"/><path fill="#1D1B4C" d="M9.1084,28.31641c-0.19092,0-0.38379-0.05469-0.55469-0.16797 c-0.45898-0.30762-0.58252-0.92773-0.27588-1.3877l6.89063-10.31641c0.30713-0.45898,0.92725-0.58008,1.38721-0.27637 c0.45898,0.30762,0.58252,0.92773,0.27588,1.3877L9.94092,27.87207C9.74805,28.16016,9.43115,28.31641,9.1084,28.31641z"/><path fill="#1D1B4C" d="M15.99902,18c-0.17725,0-0.35693-0.04688-0.51953-0.14648l-6.89063-4.19824 c-0.47168-0.28711-0.62061-0.90234-0.3335-1.37402c0.28711-0.4707,0.90137-0.62207,1.37451-0.33301l6.89063,4.19824 c0.47168,0.28711,0.62061,0.90234,0.3335,1.37402C16.66553,17.8291,16.33643,18,15.99902,18z"/><path fill="#1D1B4C" d="M7.68213,21.05859c-0.40723,0-0.79004-0.25-0.93848-0.65527 c-0.19092-0.51758,0.0752-1.09277,0.59326-1.2832l8.31787-3.05859c0.51904-0.19043,1.09375,0.07422,1.28369,0.59375 c0.19092,0.51758-0.0752,1.09277-0.59326,1.2832l-8.31787,3.05859C7.91357,21.03906,7.79688,21.05859,7.68213,21.05859z"/><path fill="#1D1B4C" d="M28.5415,22.00977c-0.0459,0-0.09229-0.00293-0.13867-0.00977l-13.93018-1.92969 c-0.54688-0.0752-0.9292-0.58008-0.85352-1.12793c0.07568-0.54688,0.58398-0.93359,1.12793-0.85254l13.93018,1.92969 c0.54688,0.0752,0.9292,0.58008,0.85352,1.12793C29.46143,21.64746,29.03271,22.00977,28.5415,22.00977z"/><path fill="#1D1B4C" d="M57,25.94043c-0.04541,0-0.09082-0.00293-0.13623-0.00977l-22.22021-3.06055 c-0.54736-0.0752-0.92969-0.5791-0.85449-1.12695s0.58594-0.9375,1.12695-0.85352L56,23.79297V21.6709l-20.29688-2.80078 c-0.54688-0.0752-0.9292-0.58008-0.854-1.12695c0.07568-0.54785,0.58105-0.93359,1.12744-0.85352l21.16016,2.91992 C57.63135,19.87793,58,20.30078,58,20.7998v4.14063c0,0.28906-0.125,0.56348-0.34277,0.75391 C57.47412,25.85352,57.24023,25.94043,57,25.94043z"/><path fill="#1D1B4C" d="M61,44c-0.55225,0-1-0.44727-1-1V17c0-0.55176-0.44873-1-1-1s-1,0.44824-1,1v26c0,0.55273-0.44775,1-1,1 s-1-0.44727-1-1V17c0-1.6543,1.3457-3,3-3s3,1.3457,3,3v26C62,43.55273,61.55225,44,61,44z"/><path fill="#1D1B4C" d="M62,53h-6c-0.55225,0-1-0.44727-1-1v-9c0-0.55273,0.44775-1,1-1h6c0.55225,0,1,0.44727,1,1v9 C63,52.55273,62.55225,53,62,53z M57,51h4v-7h-4V51z"/><path fill="#1D1B4C" d="M6,36c-0.55225,0-1-0.44727-1-1v-6.33008c0-0.55273,0.44775-1,1-1s1,0.44727,1,1V35 C7,35.55273,6.55225,36,6,36z"/><path fill="#1D1B4C" d="M6,42c-2.20557,0-4-1.79395-4-4s1.79443-4,4-4s4,1.79395,4,4S8.20557,42,6,42z M6,36 c-1.10303,0-2,0.89746-2,2s0.89697,2,2,2s2-0.89746,2-2S7.10303,36,6,36z"/><path fill="#1D1B4C" d="M6,64c-0.55225,0-1-0.44727-1-1V41c0-0.55273,0.44775-1,1-1s1,0.44727,1,1v22C7,63.55273,6.55225,64,6,64z"/><path fill="#1D1B4C" d="M59,64c-0.55225,0-1-0.44727-1-1V53c0-0.55273,0.44775-1,1-1s1,0.44727,1,1v10 C60,63.55273,59.55225,64,59,64z"/><path fill="#1D1B4C" d="M58.00098,62c-0.36719,0-0.72021-0.20215-0.89551-0.55273 c-0.24707-0.49414-0.04688-1.09473,0.44727-1.3418l2-1c0.49561-0.24512,1.09521-0.0459,1.3418,0.44727 c0.24707,0.49414,0.04688,1.09473-0.44727,1.3418l-2,1C58.30371,61.96582,58.15088,62,58.00098,62z"/><path fill="#1D1B4C" d="M58.00098,59c-0.36719,0-0.72021-0.20215-0.89551-0.55273 c-0.24707-0.49414-0.04688-1.09473,0.44727-1.3418l2-1c0.49561-0.24512,1.09521-0.0459,1.3418,0.44727 c0.24707,0.49414,0.04688,1.09473-0.44727,1.3418l-2,1C58.30371,58.96582,58.15088,59,58.00098,59z"/><path fill="#1D1B4C" d="M58.00098,56c-0.36719,0-0.72021-0.20215-0.89551-0.55273 c-0.24707-0.49414-0.04688-1.09473,0.44727-1.3418l2-1c0.49561-0.24707,1.09521-0.04688,1.3418,0.44727 c0.24707,0.49414,0.04688,1.09473-0.44727,1.3418l-2,1C58.30371,55.96582,58.15088,56,58.00098,56z"/><path fill="#1D1B4C" d="M32,62c-0.26025,0-0.52002-0.11035-0.70996-0.29004C31.10986,61.51953,31,61.25977,31,61 c0-0.27051,0.10986-0.52051,0.29004-0.70996c0.37988-0.37012,1.0498-0.37012,1.41992,0C32.88965,60.47949,33,60.74023,33,61 s-0.11035,0.51953-0.29004,0.70996C32.52002,61.88965,32.25977,62,32,62z"/><path fill="#1D1B4C" d="M36,62c-0.26025,0-0.52002-0.11035-0.70996-0.29004C35.10986,61.51953,35,61.25977,35,61 c0-0.27051,0.10986-0.52051,0.29004-0.70996c0.37988-0.37012,1.0498-0.37012,1.41992,0C36.88965,60.47949,37,60.74023,37,61 s-0.11035,0.51953-0.29004,0.70996C36.52002,61.88965,36.25977,62,36,62z"/><path fill="#1D1B4C" d="M28,62c-0.26025,0-0.52002-0.11035-0.70996-0.29004C27.10986,61.51953,27,61.25977,27,61 c0-0.27051,0.10986-0.52051,0.2998-0.70996c0.35986-0.37012,1.04004-0.37012,1.41016,0C28.88965,60.47949,29,60.72949,29,61 c0,0.25977-0.11035,0.51953-0.29004,0.70996C28.52002,61.88965,28.25977,62,28,62z"/><path fill="#1D1B4C" d="M19,64h-4c-0.30811,0-0.59863-0.1416-0.78809-0.38477c-0.18945-0.24219-0.25684-0.55859-0.18213-0.85742 l9-36c0.13428-0.53711,0.6792-0.8623,1.21289-0.72754c0.53564,0.13379,0.86133,0.67676,0.72754,1.21191L16.28076,62h1.93848 l8.81055-35.24219c0.13428-0.53711,0.67822-0.8623,1.21289-0.72754c0.53564,0.13379,0.86133,0.67676,0.72754,1.21191l-9,36 C19.85889,63.6875,19.45898,64,19,64z"/><path fill="#1D1B4C" d="M49,64h-4c-0.45898,0-0.85889-0.3125-0.97021-0.75781l-9-36 c-0.13379-0.53516,0.19189-1.07813,0.72754-1.21191c0.53516-0.13477,1.07861,0.19043,1.21289,0.72754L45.78076,62h1.93848 l-8.68945-34.75781c-0.13379-0.53516,0.19189-1.07813,0.72754-1.21191c0.53467-0.13477,1.07861,0.19043,1.21289,0.72754l9,36 c0.07471,0.29883,0.00732,0.61523-0.18213,0.85742C49.59863,63.8584,49.30811,64,49,64z"/><path fill="#1D1B4C" d="M32,20c-0.26025,0-0.52002-0.11035-0.70996-0.29004C31.10986,19.51953,31,19.25977,31,19 s0.10986-0.52051,0.29004-0.70996c0.37988-0.37012,1.0498-0.37012,1.41992,0C32.88965,18.47949,33,18.72949,33,19 c0,0.25977-0.11035,0.51953-0.29004,0.70996C32.52002,19.88965,32.27002,20,32,20z"/></svg>